<svg xmlns="http://www.w3.org/2000/svg" version="1.1" xmlns:xlink="http://www.w3.org/1999/xlink" xmlns:svgjs="http://svgjs.dev/svgjs" width="600" height="300" preserveAspectRatio="none" viewBox="0 0 600 300"><g mask="url(&quot;#SvgjsMask1048&quot;)" fill="none"><rect width="600" height="300" x="0" y="0" fill="rgba(196, 204, 212, 1)"></rect><path d="M4 300L304 0L358 0L58 300z" fill="url(&quot;#SvgjsLinearGradient1049&quot;)"></path><path d="M216 300L516 0L753 0L453 300z" fill="url(&quot;#SvgjsLinearGradient1049&quot;)"></path><path d="M571 300L271 0L-9.5 0L290.5 300z" fill="url(&quot;#SvgjsLinearGradient1050&quot;)"></path><path d="M392 300L92 0L-179.5 0L120.5 300z" fill="url(&quot;#SvgjsLinearGradient1050&quot;)"></path><path d="M411.0422619113381 300L600 111.04226191133804L600 300z" fill="url(&quot;#SvgjsLinearGradient1049&quot;)"></path><path d="M0 300L188.95773808866196 300L 0 111.04226191133804z" fill="url(&quot;#SvgjsLinearGradient1050&quot;)"></path></g><defs><mask id="SvgjsMask1048"><rect width="600" height="300" fill="#ffffff"></rect></mask><linearGradient x1="0%" y1="100%" x2="100%" y2="0%" id="SvgjsLinearGradient1049"><stop stop-color="rgba(15, 70, 185, 0.2)" offset="0"></stop><stop stop-opacity="0" stop-color="rgba(15, 70, 185, 0.2)" offset="0.66"></stop></linearGradient><linearGradient x1="100%" y1="100%" x2="0%" y2="0%" id="SvgjsLinearGradient1050"><stop stop-color="rgba(15, 70, 185, 0.2)" offset="0"></stop><stop stop-opacity="0" stop-color="rgba(15, 70, 185, 0.2)" offset="0.66"></stop></linearGradient></defs></svg>