<svg xmlns="http://www.w3.org/2000/svg" version="1.1" xmlns:xlink="http://www.w3.org/1999/xlink" xmlns:svgjs="http://svgjs.dev/svgjs" width="1440" height="720" preserveAspectRatio="none" viewBox="0 0 1440 720"><g mask="url(&quot;#SvgjsMask1006&quot;)" fill="none"><rect width="1440" height="720" x="0" y="0" fill="rgba(21, 67, 96, 1)"></rect><path d="M0,359.207C66.061,364.468,115.975,303.034,171.501,266.86C226.645,230.934,298.24,208.533,324.143,148.031C349.962,87.726,324.293,18.763,304.499,-43.78C287.165,-98.551,257.586,-147.302,217.616,-188.566C179.309,-228.113,132.839,-257.147,80.697,-274.827C26.866,-293.079,-29.086,-297.887,-85.551,-291.361C-150.921,-283.806,-220.408,-277.112,-270.344,-234.255C-323.175,-188.914,-348.048,-120.099,-364.052,-52.343C-381.184,20.19,-408.345,106.049,-365.052,166.714C-320.991,228.456,-221.896,205.496,-154.801,240.876C-96.162,271.797,-66.083,353.945,0,359.207" fill="#0e2c3e"></path><path d="M1440 1307.297C1570.526 1314.813 1718.356 1394.566 1824.141 1317.7350000000001 1930.85 1240.233 1909.5439999999999 1075.833 1936.459 946.725 1957.527 845.664 1958.548 747.656 1964.472 644.592 1972.075 512.331 2060.638 357.463 1976.2 255.38 1892.285 153.92899999999997 1724.531 211.52999999999997 1593.745 196.39099999999996 1487.4279999999999 184.08500000000004 1380.306 137.697 1279.91 174.784 1181.62 211.09300000000002 1132.348 314.794 1062.2939999999999 392.716 990.7149999999999 472.33500000000004 899.099 536 864.178 637.2090000000001 825.468 749.398 819.041 873.733 857.595 985.976 898.13 1103.987 974.0219999999999 1214.796 1083.276 1275.0729999999999 1189.974 1333.94 1318.342 1300.2910000000002 1440 1307.297" fill="#1c5a82"></path></g><defs><mask id="SvgjsMask1006"><rect width="1440" height="720" fill="#ffffff"></rect></mask></defs></svg>