<svg xmlns="http://www.w3.org/2000/svg" version="1.1" xmlns:xlink="http://www.w3.org/1999/xlink" xmlns:svgjs="http://svgjs.dev/svgjs" width="1440" height="720" preserveAspectRatio="none" viewBox="0 0 1440 720"><g mask="url(&quot;#SvgjsMask2533&quot;)" fill="none"><rect width="1440" height="720" x="0" y="0" fill="url(&quot;#SvgjsLinearGradient2534&quot;)"></rect><path d="M-83.21 653.41L-83.21 653.41" stroke="rgba(186, 86, 183, 1)" stroke-width="1.5"></path><path d="M-83.21 653.41L-98.75 794.25" stroke="rgba(186, 86, 183, 1)" stroke-width="1.5"></path><path d="M-83.21 653.41L100.44 655.51" stroke="rgba(186, 86, 183, 1)" stroke-width="1.5"></path><path d="M-83.21 653.41L48.09 496.91" stroke="rgba(186, 86, 183, 1)" stroke-width="1.5"></path><path d="M-98.75 794.25L-98.75 794.25" stroke="rgba(186, 86, 183, 1)" stroke-width="1.5"></path><path d="M-98.75 794.25L77.39 841.57" stroke="rgba(186, 86, 183, 1)" stroke-width="1.5"></path><path d="M48.09 496.91L48.09 496.91" stroke="rgba(186, 86, 183, 1)" stroke-width="1.5"></path><path d="M48.09 496.91L200.27 511.85" stroke="rgba(186, 86, 183, 1)" stroke-width="1.5"></path><path d="M48.09 496.91L100.44 655.51" stroke="rgba(186, 86, 183, 1)" stroke-width="1.5"></path><path d="M48.09 496.91L221.32 665.25" stroke="rgba(186, 86, 183, 1)" stroke-width="1.5"></path><path d="M100.44 655.51L100.44 655.51" stroke="rgba(186, 86, 183, 1)" stroke-width="1.5"></path><path d="M100.44 655.51L221.32 665.25" stroke="rgba(186, 86, 183, 1)" stroke-width="1.5"></path><path d="M100.44 655.51L200.27 511.85" stroke="rgba(186, 86, 183, 1)" stroke-width="1.5"></path><path d="M100.44 655.51L77.39 841.57" stroke="rgba(186, 86, 183, 1)" stroke-width="1.5"></path><path d="M100.44 655.51L250.74 832.37" stroke="rgba(186, 86, 183, 1)" stroke-width="1.5"></path><path d="M77.39 841.57L77.39 841.57" stroke="rgba(186, 86, 183, 1)" stroke-width="1.5"></path><path d="M77.39 841.57L250.74 832.37" stroke="rgba(186, 86, 183, 1)" stroke-width="1.5"></path><path d="M77.39 841.57L221.32 665.25" stroke="rgba(186, 86, 183, 1)" stroke-width="1.5"></path><path d="M77.39 841.57L-83.21 653.41" stroke="rgba(186, 86, 183, 1)" stroke-width="1.5"></path><path d="M200.27 511.85L200.27 511.85" stroke="rgba(186, 86, 183, 1)" stroke-width="1.5"></path><path d="M200.27 511.85L221.32 665.25" stroke="rgba(186, 86, 183, 1)" stroke-width="1.5"></path><path d="M200.27 511.85L406.02 524.37" stroke="rgba(186, 86, 183, 1)" stroke-width="1.5"></path><path d="M200.27 511.85L408.49 694.34" stroke="rgba(186, 86, 183, 1)" stroke-width="1.5"></path><path d="M200.27 511.85L-83.21 653.41" stroke="rgba(186, 86, 183, 1)" stroke-width="1.5"></path><path d="M221.32 665.25L221.32 665.25" stroke="rgba(186, 86, 183, 1)" stroke-width="1.5"></path><path d="M221.32 665.25L250.74 832.37" stroke="rgba(186, 86, 183, 1)" stroke-width="1.5"></path><path d="M221.32 665.25L408.49 694.34" stroke="rgba(186, 86, 183, 1)" stroke-width="1.5"></path><path d="M250.74 832.37L250.74 832.37" stroke="rgba(186, 86, 183, 1)" stroke-width="1.5"></path><path d="M250.74 832.37L400.3 849.29" stroke="rgba(186, 86, 183, 1)" stroke-width="1.5"></path><path d="M406.02 524.37L406.02 524.37" stroke="rgba(186, 86, 183, 1)" stroke-width="1.5"></path><path d="M406.02 524.37L531.95 528.35" stroke="rgba(186, 86, 183, 1)" stroke-width="1.5"></path><path d="M406.02 524.37L408.49 694.34" stroke="rgba(186, 86, 183, 1)" stroke-width="1.5"></path><path d="M406.02 524.37L537.52 650.04" stroke="rgba(186, 86, 183, 1)" stroke-width="1.5"></path><path d="M408.49 694.34L408.49 694.34" stroke="rgba(186, 86, 183, 1)" stroke-width="1.5"></path><path d="M408.49 694.34L537.52 650.04" stroke="rgba(186, 86, 183, 1)" stroke-width="1.5"></path><path d="M408.49 694.34L514.54 803.86" stroke="rgba(186, 86, 183, 1)" stroke-width="1.5"></path><path d="M400.3 849.29L400.3 849.29" stroke="rgba(186, 86, 183, 1)" stroke-width="1.5"></path><path d="M400.3 849.29L514.54 803.86" stroke="rgba(186, 86, 183, 1)" stroke-width="1.5"></path><path d="M400.3 849.29L408.49 694.34" stroke="rgba(186, 86, 183, 1)" stroke-width="1.5"></path><path d="M400.3 849.29L537.52 650.04" stroke="rgba(186, 86, 183, 1)" stroke-width="1.5"></path><path d="M400.3 849.29L221.32 665.25" stroke="rgba(186, 86, 183, 1)" stroke-width="1.5"></path><path d="M531.95 528.35L531.95 528.35" stroke="rgba(186, 86, 183, 1)" stroke-width="1.5"></path><path d="M531.95 528.35L537.52 650.04" stroke="rgba(186, 86, 183, 1)" stroke-width="1.5"></path><path d="M531.95 528.35L664.1 379.77" stroke="rgba(186, 86, 183, 1)" stroke-width="1.5"></path><path d="M537.52 650.04L537.52 650.04" stroke="rgba(186, 86, 183, 1)" stroke-width="1.5"></path><path d="M537.52 650.04L514.54 803.86" stroke="rgba(186, 86, 183, 1)" stroke-width="1.5"></path><path d="M514.54 803.86L514.54 803.86" stroke="rgba(186, 86, 183, 1)" stroke-width="1.5"></path><path d="M664.1 379.77L664.1 379.77" stroke="rgba(186, 86, 183, 1)" stroke-width="1.5"></path><path d="M664.1 379.77L792.86 360.64" stroke="rgba(186, 86, 183, 1)" stroke-width="1.5"></path><path d="M664.1 379.77L832.71 506.27" stroke="rgba(186, 86, 183, 1)" stroke-width="1.5"></path><path d="M664.1 379.77L806.04 201.31" stroke="rgba(186, 86, 183, 1)" stroke-width="1.5"></path><path d="M664.1 379.77L406.02 524.37" stroke="rgba(186, 86, 183, 1)" stroke-width="1.5"></path><path d="M664.1 379.77L537.52 650.04" stroke="rgba(186, 86, 183, 1)" stroke-width="1.5"></path><path d="M709.71 829.31L709.71 829.31" stroke="rgba(186, 86, 183, 1)" stroke-width="1.5"></path><path d="M709.71 829.31L846.7 849.7" stroke="rgba(186, 86, 183, 1)" stroke-width="1.5"></path><path d="M709.71 829.31L514.54 803.86" stroke="rgba(186, 86, 183, 1)" stroke-width="1.5"></path><path d="M709.71 829.31L853.08 668.35" stroke="rgba(186, 86, 183, 1)" stroke-width="1.5"></path><path d="M709.71 829.31L537.52 650.04" stroke="rgba(186, 86, 183, 1)" stroke-width="1.5"></path><path d="M709.71 829.31L1010.64 789.05" stroke="rgba(186, 86, 183, 1)" stroke-width="1.5"></path><path d="M806.04 201.31L806.04 201.31" stroke="rgba(186, 86, 183, 1)" stroke-width="1.5"></path><path d="M806.04 201.31L792.86 360.64" stroke="rgba(186, 86, 183, 1)" stroke-width="1.5"></path><path d="M806.04 201.31L988.44 100.98" stroke="rgba(186, 86, 183, 1)" stroke-width="1.5"></path><path d="M792.86 360.64L792.86 360.64" stroke="rgba(186, 86, 183, 1)" stroke-width="1.5"></path><path d="M792.86 360.64L832.71 506.27" stroke="rgba(186, 86, 183, 1)" stroke-width="1.5"></path><path d="M792.86 360.64L946.82 519.27" stroke="rgba(186, 86, 183, 1)" stroke-width="1.5"></path><path d="M832.71 506.27L832.71 506.27" stroke="rgba(186, 86, 183, 1)" stroke-width="1.5"></path><path d="M832.71 506.27L946.82 519.27" stroke="rgba(186, 86, 183, 1)" stroke-width="1.5"></path><path d="M853.08 668.35L853.08 668.35" stroke="rgba(186, 86, 183, 1)" stroke-width="1.5"></path><path d="M853.08 668.35L975.7 671.58" stroke="rgba(186, 86, 183, 1)" stroke-width="1.5"></path><path d="M853.08 668.35L832.71 506.27" stroke="rgba(186, 86, 183, 1)" stroke-width="1.5"></path><path d="M853.08 668.35L946.82 519.27" stroke="rgba(186, 86, 183, 1)" stroke-width="1.5"></path><path d="M853.08 668.35L846.7 849.7" stroke="rgba(186, 86, 183, 1)" stroke-width="1.5"></path><path d="M846.7 849.7L846.7 849.7" stroke="rgba(186, 86, 183, 1)" stroke-width="1.5"></path><path d="M846.7 849.7L1010.64 789.05" stroke="rgba(186, 86, 183, 1)" stroke-width="1.5"></path><path d="M846.7 849.7L975.7 671.58" stroke="rgba(186, 86, 183, 1)" stroke-width="1.5"></path><path d="M944.7 -105.72L944.7 -105.72" stroke="rgba(186, 86, 183, 1)" stroke-width="1.5"></path><path d="M944.7 -105.72L1141.74 -63.66" stroke="rgba(186, 86, 183, 1)" stroke-width="1.5"></path><path d="M944.7 -105.72L988.44 100.98" stroke="rgba(186, 86, 183, 1)" stroke-width="1.5"></path><path d="M944.7 -105.72L1111.73 102.69" stroke="rgba(186, 86, 183, 1)" stroke-width="1.5"></path><path d="M944.7 -105.72L1237.59 -93.51" stroke="rgba(186, 86, 183, 1)" stroke-width="1.5"></path><path d="M988.44 100.98L988.44 100.98" stroke="rgba(186, 86, 183, 1)" stroke-width="1.5"></path><path d="M988.44 100.98L1111.73 102.69" stroke="rgba(186, 86, 183, 1)" stroke-width="1.5"></path><path d="M988.44 100.98L1012.37 240.87" stroke="rgba(186, 86, 183, 1)" stroke-width="1.5"></path><path d="M1012.37 240.87L1012.37 240.87" stroke="rgba(186, 86, 183, 1)" stroke-width="1.5"></path><path d="M1012.37 240.87L1144.32 258.25" stroke="rgba(186, 86, 183, 1)" stroke-width="1.5"></path><path d="M1012.37 240.87L1114.18 357.78" stroke="rgba(186, 86, 183, 1)" stroke-width="1.5"></path><path d="M1012.37 240.87L1111.73 102.69" stroke="rgba(186, 86, 183, 1)" stroke-width="1.5"></path><path d="M1012.37 240.87L806.04 201.31" stroke="rgba(186, 86, 183, 1)" stroke-width="1.5"></path><path d="M946.82 519.27L946.82 519.27" stroke="rgba(186, 86, 183, 1)" stroke-width="1.5"></path><path d="M946.82 519.27L975.7 671.58" stroke="rgba(186, 86, 183, 1)" stroke-width="1.5"></path><path d="M946.82 519.27L1114.18 357.78" stroke="rgba(186, 86, 183, 1)" stroke-width="1.5"></path><path d="M975.7 671.58L975.7 671.58" stroke="rgba(186, 86, 183, 1)" stroke-width="1.5"></path><path d="M975.7 671.58L1010.64 789.05" stroke="rgba(186, 86, 183, 1)" stroke-width="1.5"></path><path d="M1010.64 789.05L1010.64 789.05" stroke="rgba(186, 86, 183, 1)" stroke-width="1.5"></path><path d="M1010.64 789.05L1092.51 850.91" stroke="rgba(186, 86, 183, 1)" stroke-width="1.5"></path><path d="M1141.74 -63.66L1141.74 -63.66" stroke="rgba(186, 86, 183, 1)" stroke-width="1.5"></path><path d="M1141.74 -63.66L1237.59 -93.51" stroke="rgba(186, 86, 183, 1)" stroke-width="1.5"></path><path d="M1141.74 -63.66L1111.73 102.69" stroke="rgba(186, 86, 183, 1)" stroke-width="1.5"></path><path d="M1111.73 102.69L1111.73 102.69" stroke="rgba(186, 86, 183, 1)" stroke-width="1.5"></path><path d="M1111.73 102.69L1144.32 258.25" stroke="rgba(186, 86, 183, 1)" stroke-width="1.5"></path><path d="M1144.32 258.25L1144.32 258.25" stroke="rgba(186, 86, 183, 1)" stroke-width="1.5"></path><path d="M1144.32 258.25L1238.69 232.37" stroke="rgba(186, 86, 183, 1)" stroke-width="1.5"></path><path d="M1144.32 258.25L1114.18 357.78" stroke="rgba(186, 86, 183, 1)" stroke-width="1.5"></path><path d="M1114.18 357.78L1114.18 357.78" stroke="rgba(186, 86, 183, 1)" stroke-width="1.5"></path><path d="M1154.32 654.58L1154.32 654.58" stroke="rgba(186, 86, 183, 1)" stroke-width="1.5"></path><path d="M1154.32 654.58L1307.51 666.68" stroke="rgba(186, 86, 183, 1)" stroke-width="1.5"></path><path d="M1154.32 654.58L1279.46 542.9" stroke="rgba(186, 86, 183, 1)" stroke-width="1.5"></path><path d="M1154.32 654.58L975.7 671.58" stroke="rgba(186, 86, 183, 1)" stroke-width="1.5"></path><path d="M1154.32 654.58L1268.25 799.58" stroke="rgba(186, 86, 183, 1)" stroke-width="1.5"></path><path d="M1154.32 654.58L1010.64 789.05" stroke="rgba(186, 86, 183, 1)" stroke-width="1.5"></path><path d="M1092.51 850.91L1092.51 850.91" stroke="rgba(186, 86, 183, 1)" stroke-width="1.5"></path><path d="M1092.51 850.91L1268.25 799.58" stroke="rgba(186, 86, 183, 1)" stroke-width="1.5"></path><path d="M1092.51 850.91L1154.32 654.58" stroke="rgba(186, 86, 183, 1)" stroke-width="1.5"></path><path d="M1092.51 850.91L975.7 671.58" stroke="rgba(186, 86, 183, 1)" stroke-width="1.5"></path><path d="M1092.51 850.91L846.7 849.7" stroke="rgba(186, 86, 183, 1)" stroke-width="1.5"></path><path d="M1092.51 850.91L1307.51 666.68" stroke="rgba(186, 86, 183, 1)" stroke-width="1.5"></path><path d="M1237.59 -93.51L1237.59 -93.51" stroke="rgba(186, 86, 183, 1)" stroke-width="1.5"></path><path d="M1237.59 -93.51L1444.72 -108.26" stroke="rgba(186, 86, 183, 1)" stroke-width="1.5"></path><path d="M1237.59 -93.51L1401.99 59.05" stroke="rgba(186, 86, 183, 1)" stroke-width="1.5"></path><path d="M1237.59 -93.51L1111.73 102.69" stroke="rgba(186, 86, 183, 1)" stroke-width="1.5"></path><path d="M1237.59 -93.51L988.44 100.98" stroke="rgba(186, 86, 183, 1)" stroke-width="1.5"></path><path d="M1238.69 232.37L1238.69 232.37" stroke="rgba(186, 86, 183, 1)" stroke-width="1.5"></path><path d="M1238.69 232.37L1307.01 349.5" stroke="rgba(186, 86, 183, 1)" stroke-width="1.5"></path><path d="M1238.69 232.37L1399.51 189.55" stroke="rgba(186, 86, 183, 1)" stroke-width="1.5"></path><path d="M1238.69 232.37L1114.18 357.78" stroke="rgba(186, 86, 183, 1)" stroke-width="1.5"></path><path d="M1238.69 232.37L1111.73 102.69" stroke="rgba(186, 86, 183, 1)" stroke-width="1.5"></path><path d="M1307.01 349.5L1307.01 349.5" stroke="rgba(186, 86, 183, 1)" stroke-width="1.5"></path><path d="M1307.01 349.5L1411.83 383.77" stroke="rgba(186, 86, 183, 1)" stroke-width="1.5"></path><path d="M1307.01 349.5L1418.11 487.68" stroke="rgba(186, 86, 183, 1)" stroke-width="1.5"></path><path d="M1307.01 349.5L1399.51 189.55" stroke="rgba(186, 86, 183, 1)" stroke-width="1.5"></path><path d="M1279.46 542.9L1279.46 542.9" stroke="rgba(186, 86, 183, 1)" stroke-width="1.5"></path><path d="M1279.46 542.9L1307.51 666.68" stroke="rgba(186, 86, 183, 1)" stroke-width="1.5"></path><path d="M1279.46 542.9L1418.11 487.68" stroke="rgba(186, 86, 183, 1)" stroke-width="1.5"></path><path d="M1279.46 542.9L1307.01 349.5" stroke="rgba(186, 86, 183, 1)" stroke-width="1.5"></path><path d="M1307.51 666.68L1307.51 666.68" stroke="rgba(186, 86, 183, 1)" stroke-width="1.5"></path><path d="M1307.51 666.68L1426.77 710.99" stroke="rgba(186, 86, 183, 1)" stroke-width="1.5"></path><path d="M1307.51 666.68L1268.25 799.58" stroke="rgba(186, 86, 183, 1)" stroke-width="1.5"></path><path d="M1307.51 666.68L1418.11 487.68" stroke="rgba(186, 86, 183, 1)" stroke-width="1.5"></path><path d="M1268.25 799.58L1268.25 799.58" stroke="rgba(186, 86, 183, 1)" stroke-width="1.5"></path><path d="M1268.25 799.58L1426.77 710.99" stroke="rgba(186, 86, 183, 1)" stroke-width="1.5"></path><path d="M1268.25 799.58L1457.13 848.85" stroke="rgba(186, 86, 183, 1)" stroke-width="1.5"></path><path d="M1444.72 -108.26L1444.72 -108.26" stroke="rgba(186, 86, 183, 1)" stroke-width="1.5"></path><path d="M1444.72 -108.26L1401.99 59.05" stroke="rgba(186, 86, 183, 1)" stroke-width="1.5"></path><path d="M1401.99 59.05L1401.99 59.05" stroke="rgba(186, 86, 183, 1)" stroke-width="1.5"></path><path d="M1401.99 59.05L1399.51 189.55" stroke="rgba(186, 86, 183, 1)" stroke-width="1.5"></path><path d="M1401.99 59.05L1580.14 105.01" stroke="rgba(186, 86, 183, 1)" stroke-width="1.5"></path><path d="M1401.99 59.05L1238.69 232.37" stroke="rgba(186, 86, 183, 1)" stroke-width="1.5"></path><path d="M1399.51 189.55L1399.51 189.55" stroke="rgba(186, 86, 183, 1)" stroke-width="1.5"></path><path d="M1399.51 189.55L1411.83 383.77" stroke="rgba(186, 86, 183, 1)" stroke-width="1.5"></path><path d="M1399.51 189.55L1580.14 105.01" stroke="rgba(186, 86, 183, 1)" stroke-width="1.5"></path><path d="M1411.83 383.77L1411.83 383.77" stroke="rgba(186, 86, 183, 1)" stroke-width="1.5"></path><path d="M1411.83 383.77L1418.11 487.68" stroke="rgba(186, 86, 183, 1)" stroke-width="1.5"></path><path d="M1411.83 383.77L1557.21 392.86" stroke="rgba(186, 86, 183, 1)" stroke-width="1.5"></path><path d="M1411.83 383.77L1279.46 542.9" stroke="rgba(186, 86, 183, 1)" stroke-width="1.5"></path><path d="M1418.11 487.68L1418.11 487.68" stroke="rgba(186, 86, 183, 1)" stroke-width="1.5"></path><path d="M1418.11 487.68L1549.05 551.18" stroke="rgba(186, 86, 183, 1)" stroke-width="1.5"></path><path d="M1426.77 710.99L1426.77 710.99" stroke="rgba(186, 86, 183, 1)" stroke-width="1.5"></path><path d="M1426.77 710.99L1550.29 657.11" stroke="rgba(186, 86, 183, 1)" stroke-width="1.5"></path><path d="M1426.77 710.99L1457.13 848.85" stroke="rgba(186, 86, 183, 1)" stroke-width="1.5"></path><path d="M1457.13 848.85L1457.13 848.85" stroke="rgba(186, 86, 183, 1)" stroke-width="1.5"></path><path d="M1457.13 848.85L1610.09 852.06" stroke="rgba(186, 86, 183, 1)" stroke-width="1.5"></path><path d="M1457.13 848.85L1550.29 657.11" stroke="rgba(186, 86, 183, 1)" stroke-width="1.5"></path><path d="M1457.13 848.85L1307.51 666.68" stroke="rgba(186, 86, 183, 1)" stroke-width="1.5"></path><path d="M1457.13 848.85L1549.05 551.18" stroke="rgba(186, 86, 183, 1)" stroke-width="1.5"></path><path d="M1580.14 105.01L1580.14 105.01" stroke="rgba(186, 86, 183, 1)" stroke-width="1.5"></path><path d="M1557.21 392.86L1557.21 392.86" stroke="rgba(186, 86, 183, 1)" stroke-width="1.5"></path><path d="M1557.21 392.86L1549.05 551.18" stroke="rgba(186, 86, 183, 1)" stroke-width="1.5"></path><path d="M1557.21 392.86L1418.11 487.68" stroke="rgba(186, 86, 183, 1)" stroke-width="1.5"></path><path d="M1549.05 551.18L1549.05 551.18" stroke="rgba(186, 86, 183, 1)" stroke-width="1.5"></path><path d="M1549.05 551.18L1550.29 657.11" stroke="rgba(186, 86, 183, 1)" stroke-width="1.5"></path><path d="M1550.29 657.11L1550.29 657.11" stroke="rgba(186, 86, 183, 1)" stroke-width="1.5"></path><path d="M1550.29 657.11L1610.09 852.06" stroke="rgba(186, 86, 183, 1)" stroke-width="1.5"></path><path d="M1610.09 852.06L1610.09 852.06" stroke="rgba(186, 86, 183, 1)" stroke-width="1.5"></path><path d="M1610.09 852.06L1426.77 710.99" stroke="rgba(186, 86, 183, 1)" stroke-width="1.5"></path><path d="M1610.09 852.06L1549.05 551.18" stroke="rgba(186, 86, 183, 1)" stroke-width="1.5"></path><path d="M1610.09 852.06L1268.25 799.58" stroke="rgba(186, 86, 183, 1)" stroke-width="1.5"></path><path d="M1610.09 852.06L1307.51 666.68" stroke="rgba(186, 86, 183, 1)" stroke-width="1.5"></path><circle r="5" cx="-83.21" cy="653.41" fill="rgba(186, 86, 183, 1)"></circle><circle r="5" cx="-98.75" cy="794.25" fill="rgba(186, 86, 183, 1)"></circle><circle r="5" cx="48.09" cy="496.91" fill="rgba(186, 86, 183, 1)"></circle><circle r="5" cx="100.44" cy="655.51" fill="rgba(186, 86, 183, 1)"></circle><circle r="5" cx="77.39" cy="841.57" fill="rgba(186, 86, 183, 1)"></circle><circle r="5" cx="200.27" cy="511.85" fill="rgba(186, 86, 183, 1)"></circle><circle r="5" cx="221.32" cy="665.25" fill="rgba(186, 86, 183, 1)"></circle><circle r="5" cx="250.74" cy="832.37" fill="rgba(186, 86, 183, 1)"></circle><circle r="5" cx="406.02" cy="524.37" fill="rgba(186, 86, 183, 1)"></circle><circle r="5" cx="408.49" cy="694.34" fill="rgba(186, 86, 183, 1)"></circle><circle r="5" cx="400.3" cy="849.29" fill="rgba(186, 86, 183, 1)"></circle><circle r="5" cx="531.95" cy="528.35" fill="rgba(186, 86, 183, 1)"></circle><circle r="5" cx="537.52" cy="650.04" fill="rgba(186, 86, 183, 1)"></circle><circle r="5" cx="514.54" cy="803.86" fill="rgba(186, 86, 183, 1)"></circle><circle r="5" cx="664.1" cy="379.77" fill="rgba(186, 86, 183, 1)"></circle><circle r="5" cx="709.71" cy="829.31" fill="rgba(186, 86, 183, 1)"></circle><circle r="5" cx="806.04" cy="201.31" fill="rgba(186, 86, 183, 1)"></circle><circle r="5" cx="792.86" cy="360.64" fill="rgba(186, 86, 183, 1)"></circle><circle r="5" cx="832.71" cy="506.27" fill="rgba(186, 86, 183, 1)"></circle><circle r="5" cx="853.08" cy="668.35" fill="rgba(186, 86, 183, 1)"></circle><circle r="5" cx="846.7" cy="849.7" fill="rgba(186, 86, 183, 1)"></circle><circle r="5" cx="944.7" cy="-105.72" fill="rgba(186, 86, 183, 1)"></circle><circle r="5" cx="988.44" cy="100.98" fill="rgba(186, 86, 183, 1)"></circle><circle r="5" cx="1012.37" cy="240.87" fill="rgba(186, 86, 183, 1)"></circle><circle r="5" cx="946.82" cy="519.27" fill="rgba(186, 86, 183, 1)"></circle><circle r="5" cx="975.7" cy="671.58" fill="rgba(186, 86, 183, 1)"></circle><circle r="5" cx="1010.64" cy="789.05" fill="rgba(186, 86, 183, 1)"></circle><circle r="5" cx="1141.74" cy="-63.66" fill="rgba(186, 86, 183, 1)"></circle><circle r="5" cx="1111.73" cy="102.69" fill="rgba(186, 86, 183, 1)"></circle><circle r="5" cx="1144.32" cy="258.25" fill="rgba(186, 86, 183, 1)"></circle><circle r="5" cx="1114.18" cy="357.78" fill="rgba(186, 86, 183, 1)"></circle><circle r="5" cx="1154.32" cy="654.58" fill="rgba(186, 86, 183, 1)"></circle><circle r="5" cx="1092.51" cy="850.91" fill="rgba(186, 86, 183, 1)"></circle><circle r="5" cx="1237.59" cy="-93.51" fill="rgba(186, 86, 183, 1)"></circle><circle r="5" cx="1238.69" cy="232.37" fill="rgba(186, 86, 183, 1)"></circle><circle r="5" cx="1307.01" cy="349.5" fill="rgba(186, 86, 183, 1)"></circle><circle r="5" cx="1279.46" cy="542.9" fill="rgba(186, 86, 183, 1)"></circle><circle r="5" cx="1307.51" cy="666.68" fill="rgba(186, 86, 183, 1)"></circle><circle r="5" cx="1268.25" cy="799.58" fill="rgba(186, 86, 183, 1)"></circle><circle r="5" cx="1444.72" cy="-108.26" fill="rgba(186, 86, 183, 1)"></circle><circle r="5" cx="1401.99" cy="59.05" fill="rgba(186, 86, 183, 1)"></circle><circle r="5" cx="1399.51" cy="189.55" fill="rgba(186, 86, 183, 1)"></circle><circle r="5" cx="1411.83" cy="383.77" fill="rgba(186, 86, 183, 1)"></circle><circle r="5" cx="1418.11" cy="487.68" fill="rgba(186, 86, 183, 1)"></circle><circle r="5" cx="1426.77" cy="710.99" fill="rgba(186, 86, 183, 1)"></circle><circle r="5" cx="1457.13" cy="848.85" fill="rgba(186, 86, 183, 1)"></circle><circle r="5" cx="1580.14" cy="105.01" fill="rgba(186, 86, 183, 1)"></circle><circle r="5" cx="1557.21" cy="392.86" fill="rgba(186, 86, 183, 1)"></circle><circle r="5" cx="1549.05" cy="551.18" fill="rgba(186, 86, 183, 1)"></circle><circle r="5" cx="1550.29" cy="657.11" fill="rgba(186, 86, 183, 1)"></circle><circle r="5" cx="1610.09" cy="852.06" fill="rgba(186, 86, 183, 1)"></circle><path d="M-54.83 682.09L-54.83 682.09" stroke="hsl(240, 4%, 100%)" stroke-width="1.5"></path><path d="M-54.83 682.09L106.94 662.84" stroke="hsl(240, 4%, 100%)" stroke-width="1.5"></path><path d="M-54.83 682.09L-57.21 861.92" stroke="hsl(240, 4%, 100%)" stroke-width="1.5"></path><path d="M-54.83 682.09L88.61 793.3" stroke="hsl(240, 4%, 100%)" stroke-width="1.5"></path><path d="M-54.83 682.09L202.74 690.15" stroke="hsl(240, 4%, 100%)" stroke-width="1.5"></path><path d="M-54.83 682.09L205.07 830.85" stroke="hsl(240, 4%, 100%)" stroke-width="1.5"></path><path d="M-54.83 682.09L386.61 688.25" stroke="hsl(240, 4%, 100%)" stroke-width="1.5"></path><path d="M202.74 690.15L202.74 690.15" stroke="hsl(240, 4%, 100%)" stroke-width="1.5"></path><path d="M202.74 690.15L106.94 662.84" stroke="hsl(240, 4%, 100%)" stroke-width="1.5"></path><path d="M202.74 690.15L205.07 830.85" stroke="hsl(240, 4%, 100%)" stroke-width="1.5"></path><path d="M202.74 690.15L88.61 793.3" stroke="hsl(240, 4%, 100%)" stroke-width="1.5"></path><path d="M374.86 795.71L374.86 795.71" stroke="hsl(240, 4%, 100%)" stroke-width="1.5"></path><path d="M374.86 795.71L386.61 688.25" stroke="hsl(240, 4%, 100%)" stroke-width="1.5"></path><path d="M374.86 795.71L528.14 803.59" stroke="hsl(240, 4%, 100%)" stroke-width="1.5"></path><path d="M374.86 795.71L205.07 830.85" stroke="hsl(240, 4%, 100%)" stroke-width="1.5"></path><path d="M374.86 795.71L202.74 690.15" stroke="hsl(240, 4%, 100%)" stroke-width="1.5"></path><path d="M374.86 795.71L506.27 639.36" stroke="hsl(240, 4%, 100%)" stroke-width="1.5"></path><path d="M374.86 795.71L650.41 797.95" stroke="hsl(240, 4%, 100%)" stroke-width="1.5"></path><path d="M528.14 803.59L528.14 803.59" stroke="hsl(240, 4%, 100%)" stroke-width="1.5"></path><path d="M528.14 803.59L650.41 797.95" stroke="hsl(240, 4%, 100%)" stroke-width="1.5"></path><path d="M528.14 803.59L506.27 639.36" stroke="hsl(240, 4%, 100%)" stroke-width="1.5"></path><path d="M528.14 803.59L386.61 688.25" stroke="hsl(240, 4%, 100%)" stroke-width="1.5"></path><path d="M528.14 803.59L679.93 678.68" stroke="hsl(240, 4%, 100%)" stroke-width="1.5"></path><path d="M528.14 803.59L792.38 843.29" stroke="hsl(240, 4%, 100%)" stroke-width="1.5"></path><path d="M1542.69 -87.49L1542.69 -87.49" stroke="hsl(240, 4%, 100%)" stroke-width="1.5"></path><path d="M1542.69 -87.49L1439.71 -50.15" stroke="hsl(240, 4%, 100%)" stroke-width="1.5"></path><path d="M1542.69 -87.49L1452.79 67.97" stroke="hsl(240, 4%, 100%)" stroke-width="1.5"></path><path d="M1596.07 806.13L1596.07 806.13" stroke="hsl(240, 4%, 100%)" stroke-width="1.5"></path><path d="M1596.07 806.13L1562.53 696.1" stroke="hsl(240, 4%, 100%)" stroke-width="1.5"></path><path d="M1596.07 806.13L1461.38 682.5" stroke="hsl(240, 4%, 100%)" stroke-width="1.5"></path><path d="M1596.07 806.13L1394.49 824.03" stroke="hsl(240, 4%, 100%)" stroke-width="1.5"></path><path d="M1596.07 806.13L1589.55 558.98" stroke="hsl(240, 4%, 100%)" stroke-width="1.5"></path><path d="M1596.07 806.13L1454.62 549.67" stroke="hsl(240, 4%, 100%)" stroke-width="1.5"></path><path d="M1596.07 806.13L1277.12 641.81" stroke="hsl(240, 4%, 100%)" stroke-width="1.5"></path><path d="M-57.21 861.92L-57.21 861.92" stroke="hsl(240, 4%, 100%)" stroke-width="1.5"></path><path d="M-57.21 861.92L88.61 793.3" stroke="hsl(240, 4%, 100%)" stroke-width="1.5"></path><path d="M106.94 662.84L106.94 662.84" stroke="hsl(240, 4%, 100%)" stroke-width="1.5"></path><path d="M106.94 662.84L88.61 793.3" stroke="hsl(240, 4%, 100%)" stroke-width="1.5"></path><path d="M106.94 662.84L205.07 830.85" stroke="hsl(240, 4%, 100%)" stroke-width="1.5"></path><path d="M106.94 662.84L-57.21 861.92" stroke="hsl(240, 4%, 100%)" stroke-width="1.5"></path><path d="M106.94 662.84L386.61 688.25" stroke="hsl(240, 4%, 100%)" stroke-width="1.5"></path><path d="M88.61 793.3L88.61 793.3" stroke="hsl(240, 4%, 100%)" stroke-width="1.5"></path><path d="M88.61 793.3L205.07 830.85" stroke="hsl(240, 4%, 100%)" stroke-width="1.5"></path><path d="M205.07 830.85L205.07 830.85" stroke="hsl(240, 4%, 100%)" stroke-width="1.5"></path><path d="M386.61 688.25L386.61 688.25" stroke="hsl(240, 4%, 100%)" stroke-width="1.5"></path><path d="M386.61 688.25L506.27 639.36" stroke="hsl(240, 4%, 100%)" stroke-width="1.5"></path><path d="M386.61 688.25L202.74 690.15" stroke="hsl(240, 4%, 100%)" stroke-width="1.5"></path><path d="M386.61 688.25L205.07 830.85" stroke="hsl(240, 4%, 100%)" stroke-width="1.5"></path><path d="M506.27 639.36L506.27 639.36" stroke="hsl(240, 4%, 100%)" stroke-width="1.5"></path><path d="M506.27 639.36L679.93 678.68" stroke="hsl(240, 4%, 100%)" stroke-width="1.5"></path><path d="M506.27 639.36L650.41 797.95" stroke="hsl(240, 4%, 100%)" stroke-width="1.5"></path><path d="M506.27 639.36L202.74 690.15" stroke="hsl(240, 4%, 100%)" stroke-width="1.5"></path><path d="M679.93 678.68L679.93 678.68" stroke="hsl(240, 4%, 100%)" stroke-width="1.5"></path><path d="M679.93 678.68L650.41 797.95" stroke="hsl(240, 4%, 100%)" stroke-width="1.5"></path><path d="M679.93 678.68L839.62 641.22" stroke="hsl(240, 4%, 100%)" stroke-width="1.5"></path><path d="M650.41 797.95L650.41 797.95" stroke="hsl(240, 4%, 100%)" stroke-width="1.5"></path><path d="M650.41 797.95L792.38 843.29" stroke="hsl(240, 4%, 100%)" stroke-width="1.5"></path><path d="M815.97 410.56L815.97 410.56" stroke="hsl(240, 4%, 100%)" stroke-width="1.5"></path><path d="M815.97 410.56L857.5 554.09" stroke="hsl(240, 4%, 100%)" stroke-width="1.5"></path><path d="M815.97 410.56L1010.24 411.68" stroke="hsl(240, 4%, 100%)" stroke-width="1.5"></path><path d="M815.97 410.56L1006.02 511.14" stroke="hsl(240, 4%, 100%)" stroke-width="1.5"></path><path d="M815.97 410.56L839.62 641.22" stroke="hsl(240, 4%, 100%)" stroke-width="1.5"></path><path d="M857.5 554.09L857.5 554.09" stroke="hsl(240, 4%, 100%)" stroke-width="1.5"></path><path d="M857.5 554.09L839.62 641.22" stroke="hsl(240, 4%, 100%)" stroke-width="1.5"></path><path d="M857.5 554.09L938.03 666.73" stroke="hsl(240, 4%, 100%)" stroke-width="1.5"></path><path d="M839.62 641.22L839.62 641.22" stroke="hsl(240, 4%, 100%)" stroke-width="1.5"></path><path d="M839.62 641.22L938.03 666.73" stroke="hsl(240, 4%, 100%)" stroke-width="1.5"></path><path d="M792.38 843.29L792.38 843.29" stroke="hsl(240, 4%, 100%)" stroke-width="1.5"></path><path d="M792.38 843.29L679.93 678.68" stroke="hsl(240, 4%, 100%)" stroke-width="1.5"></path><path d="M792.38 843.29L839.62 641.22" stroke="hsl(240, 4%, 100%)" stroke-width="1.5"></path><path d="M1010.24 411.68L1010.24 411.68" stroke="hsl(240, 4%, 100%)" stroke-width="1.5"></path><path d="M1010.24 411.68L1006.02 511.14" stroke="hsl(240, 4%, 100%)" stroke-width="1.5"></path><path d="M1010.24 411.68L1150.49 393.87" stroke="hsl(240, 4%, 100%)" stroke-width="1.5"></path><path d="M1010.24 411.68L1107.61 544.21" stroke="hsl(240, 4%, 100%)" stroke-width="1.5"></path><path d="M1006.02 511.14L1006.02 511.14" stroke="hsl(240, 4%, 100%)" stroke-width="1.5"></path><path d="M1006.02 511.14L1107.61 544.21" stroke="hsl(240, 4%, 100%)" stroke-width="1.5"></path><path d="M938.03 666.73L938.03 666.73" stroke="hsl(240, 4%, 100%)" stroke-width="1.5"></path><path d="M938.03 666.73L1006.02 511.14" stroke="hsl(240, 4%, 100%)" stroke-width="1.5"></path><path d="M938.03 666.73L1121.76 701.19" stroke="hsl(240, 4%, 100%)" stroke-width="1.5"></path><path d="M938.03 666.73L1107.61 544.21" stroke="hsl(240, 4%, 100%)" stroke-width="1.5"></path><path d="M1152.27 -59.04L1152.27 -59.04" stroke="hsl(240, 4%, 100%)" stroke-width="1.5"></path><path d="M1152.27 -59.04L1294.13 -73.83" stroke="hsl(240, 4%, 100%)" stroke-width="1.5"></path><path d="M1152.27 -59.04L1307.64 101.03" stroke="hsl(240, 4%, 100%)" stroke-width="1.5"></path><path d="M1104.05 215.73L1104.05 215.73" stroke="hsl(240, 4%, 100%)" stroke-width="1.5"></path><path d="M1104.05 215.73L1150.49 393.87" stroke="hsl(240, 4%, 100%)" stroke-width="1.5"></path><path d="M1104.05 215.73L1293.45 217.54" stroke="hsl(240, 4%, 100%)" stroke-width="1.5"></path><path d="M1104.05 215.73L1241.87 359.63" stroke="hsl(240, 4%, 100%)" stroke-width="1.5"></path><path d="M1150.49 393.87L1150.49 393.87" stroke="hsl(240, 4%, 100%)" stroke-width="1.5"></path><path d="M1150.49 393.87L1241.87 359.63" stroke="hsl(240, 4%, 100%)" stroke-width="1.5"></path><path d="M1150.49 393.87L1248.91 498.2" stroke="hsl(240, 4%, 100%)" stroke-width="1.5"></path><path d="M1150.49 393.87L1107.61 544.21" stroke="hsl(240, 4%, 100%)" stroke-width="1.5"></path><path d="M1107.61 544.21L1107.61 544.21" stroke="hsl(240, 4%, 100%)" stroke-width="1.5"></path><path d="M1107.61 544.21L1248.91 498.2" stroke="hsl(240, 4%, 100%)" stroke-width="1.5"></path><path d="M1107.61 544.21L1121.76 701.19" stroke="hsl(240, 4%, 100%)" stroke-width="1.5"></path><path d="M1107.61 544.21L1277.12 641.81" stroke="hsl(240, 4%, 100%)" stroke-width="1.5"></path><path d="M1121.76 701.19L1121.76 701.19" stroke="hsl(240, 4%, 100%)" stroke-width="1.5"></path><path d="M1121.76 701.19L1145.89 817.63" stroke="hsl(240, 4%, 100%)" stroke-width="1.5"></path><path d="M1121.76 701.19L1277.12 641.81" stroke="hsl(240, 4%, 100%)" stroke-width="1.5"></path><path d="M1145.89 817.63L1145.89 817.63" stroke="hsl(240, 4%, 100%)" stroke-width="1.5"></path><path d="M1145.89 817.63L1277.12 641.81" stroke="hsl(240, 4%, 100%)" stroke-width="1.5"></path><path d="M1145.89 817.63L1394.49 824.03" stroke="hsl(240, 4%, 100%)" stroke-width="1.5"></path><path d="M1294.13 -73.83L1294.13 -73.83" stroke="hsl(240, 4%, 100%)" stroke-width="1.5"></path><path d="M1294.13 -73.83L1439.71 -50.15" stroke="hsl(240, 4%, 100%)" stroke-width="1.5"></path><path d="M1294.13 -73.83L1307.64 101.03" stroke="hsl(240, 4%, 100%)" stroke-width="1.5"></path><path d="M1307.64 101.03L1307.64 101.03" stroke="hsl(240, 4%, 100%)" stroke-width="1.5"></path><path d="M1307.64 101.03L1293.45 217.54" stroke="hsl(240, 4%, 100%)" stroke-width="1.5"></path><path d="M1307.64 101.03L1452.79 67.97" stroke="hsl(240, 4%, 100%)" stroke-width="1.5"></path><path d="M1307.64 101.03L1452.18 188.89" stroke="hsl(240, 4%, 100%)" stroke-width="1.5"></path><path d="M1307.64 101.03L1439.71 -50.15" stroke="hsl(240, 4%, 100%)" stroke-width="1.5"></path><path d="M1293.45 217.54L1293.45 217.54" stroke="hsl(240, 4%, 100%)" stroke-width="1.5"></path><path d="M1293.45 217.54L1241.87 359.63" stroke="hsl(240, 4%, 100%)" stroke-width="1.5"></path><path d="M1241.87 359.63L1241.87 359.63" stroke="hsl(240, 4%, 100%)" stroke-width="1.5"></path><path d="M1241.87 359.63L1248.91 498.2" stroke="hsl(240, 4%, 100%)" stroke-width="1.5"></path><path d="M1248.91 498.2L1248.91 498.2" stroke="hsl(240, 4%, 100%)" stroke-width="1.5"></path><path d="M1248.91 498.2L1277.12 641.81" stroke="hsl(240, 4%, 100%)" stroke-width="1.5"></path><path d="M1277.12 641.81L1277.12 641.81" stroke="hsl(240, 4%, 100%)" stroke-width="1.5"></path><path d="M1277.12 641.81L1461.38 682.5" stroke="hsl(240, 4%, 100%)" stroke-width="1.5"></path><path d="M1277.12 641.81L1454.62 549.67" stroke="hsl(240, 4%, 100%)" stroke-width="1.5"></path><path d="M1277.12 641.81L1394.49 824.03" stroke="hsl(240, 4%, 100%)" stroke-width="1.5"></path><path d="M1439.71 -50.15L1439.71 -50.15" stroke="hsl(240, 4%, 100%)" stroke-width="1.5"></path><path d="M1439.71 -50.15L1452.79 67.97" stroke="hsl(240, 4%, 100%)" stroke-width="1.5"></path><path d="M1452.79 67.97L1452.79 67.97" stroke="hsl(240, 4%, 100%)" stroke-width="1.5"></path><path d="M1452.79 67.97L1563.29 100.79" stroke="hsl(240, 4%, 100%)" stroke-width="1.5"></path><path d="M1452.79 67.97L1452.18 188.89" stroke="hsl(240, 4%, 100%)" stroke-width="1.5"></path><path d="M1452.18 188.89L1452.18 188.89" stroke="hsl(240, 4%, 100%)" stroke-width="1.5"></path><path d="M1452.18 188.89L1561.12 224.22" stroke="hsl(240, 4%, 100%)" stroke-width="1.5"></path><path d="M1452.18 188.89L1563.29 100.79" stroke="hsl(240, 4%, 100%)" stroke-width="1.5"></path><path d="M1452.18 188.89L1293.45 217.54" stroke="hsl(240, 4%, 100%)" stroke-width="1.5"></path><path d="M1439.23 381.43L1439.23 381.43" stroke="hsl(240, 4%, 100%)" stroke-width="1.5"></path><path d="M1439.23 381.43L1561 339.96" stroke="hsl(240, 4%, 100%)" stroke-width="1.5"></path><path d="M1439.23 381.43L1454.62 549.67" stroke="hsl(240, 4%, 100%)" stroke-width="1.5"></path><path d="M1439.23 381.43L1452.18 188.89" stroke="hsl(240, 4%, 100%)" stroke-width="1.5"></path><path d="M1439.23 381.43L1241.87 359.63" stroke="hsl(240, 4%, 100%)" stroke-width="1.5"></path><path d="M1454.62 549.67L1454.62 549.67" stroke="hsl(240, 4%, 100%)" stroke-width="1.5"></path><path d="M1454.62 549.67L1461.38 682.5" stroke="hsl(240, 4%, 100%)" stroke-width="1.5"></path><path d="M1454.62 549.67L1589.55 558.98" stroke="hsl(240, 4%, 100%)" stroke-width="1.5"></path><path d="M1454.62 549.67L1562.53 696.1" stroke="hsl(240, 4%, 100%)" stroke-width="1.5"></path><path d="M1461.38 682.5L1461.38 682.5" stroke="hsl(240, 4%, 100%)" stroke-width="1.5"></path><path d="M1461.38 682.5L1562.53 696.1" stroke="hsl(240, 4%, 100%)" stroke-width="1.5"></path><path d="M1394.49 824.03L1394.49 824.03" stroke="hsl(240, 4%, 100%)" stroke-width="1.5"></path><path d="M1394.49 824.03L1461.38 682.5" stroke="hsl(240, 4%, 100%)" stroke-width="1.5"></path><path d="M1394.49 824.03L1562.53 696.1" stroke="hsl(240, 4%, 100%)" stroke-width="1.5"></path><path d="M1563.29 100.79L1563.29 100.79" stroke="hsl(240, 4%, 100%)" stroke-width="1.5"></path><path d="M1563.29 100.79L1561.12 224.22" stroke="hsl(240, 4%, 100%)" stroke-width="1.5"></path><path d="M1563.29 100.79L1542.69 -87.49" stroke="hsl(240, 4%, 100%)" stroke-width="1.5"></path><path d="M1563.29 100.79L1439.71 -50.15" stroke="hsl(240, 4%, 100%)" stroke-width="1.5"></path><path d="M1561.12 224.22L1561.12 224.22" stroke="hsl(240, 4%, 100%)" stroke-width="1.5"></path><path d="M1561 339.96L1561 339.96" stroke="hsl(240, 4%, 100%)" stroke-width="1.5"></path><path d="M1561 339.96L1561.12 224.22" stroke="hsl(240, 4%, 100%)" stroke-width="1.5"></path><path d="M1561 339.96L1452.18 188.89" stroke="hsl(240, 4%, 100%)" stroke-width="1.5"></path><path d="M1561 339.96L1589.55 558.98" stroke="hsl(240, 4%, 100%)" stroke-width="1.5"></path><path d="M1589.55 558.98L1589.55 558.98" stroke="hsl(240, 4%, 100%)" stroke-width="1.5"></path><path d="M1589.55 558.98L1562.53 696.1" stroke="hsl(240, 4%, 100%)" stroke-width="1.5"></path><path d="M1589.55 558.98L1461.38 682.5" stroke="hsl(240, 4%, 100%)" stroke-width="1.5"></path><path d="M1589.55 558.98L1439.23 381.43" stroke="hsl(240, 4%, 100%)" stroke-width="1.5"></path><path d="M1562.53 696.1L1562.53 696.1" stroke="hsl(240, 4%, 100%)" stroke-width="1.5"></path><circle r="25" cx="-54.83" cy="682.09" fill="url(&quot;#SvgjsRadialGradient2535&quot;)"></circle><circle r="25" cx="202.74" cy="690.15" fill="url(&quot;#SvgjsRadialGradient2535&quot;)"></circle><circle r="25" cx="374.86" cy="795.71" fill="url(&quot;#SvgjsRadialGradient2535&quot;)"></circle><circle r="25" cx="528.14" cy="803.59" fill="url(&quot;#SvgjsRadialGradient2535&quot;)"></circle><circle r="25" cx="1542.69" cy="-87.49" fill="url(&quot;#SvgjsRadialGradient2535&quot;)"></circle><circle r="25" cx="1596.07" cy="806.13" fill="url(&quot;#SvgjsRadialGradient2535&quot;)"></circle><circle r="5" cx="-57.21" cy="861.92" fill="#f9f9f9"></circle><circle r="5" cx="106.94" cy="662.84" fill="#f9f9f9"></circle><circle r="5" cx="88.61" cy="793.3" fill="#f9f9f9"></circle><circle r="5" cx="205.07" cy="830.85" fill="#f9f9f9"></circle><circle r="5" cx="386.61" cy="688.25" fill="#f9f9f9"></circle><circle r="5" cx="506.27" cy="639.36" fill="#f9f9f9"></circle><circle r="5" cx="679.93" cy="678.68" fill="#f9f9f9"></circle><circle r="5" cx="650.41" cy="797.95" fill="#f9f9f9"></circle><circle r="5" cx="815.97" cy="410.56" fill="#f9f9f9"></circle><circle r="5" cx="857.5" cy="554.09" fill="#f9f9f9"></circle><circle r="5" cx="839.62" cy="641.22" fill="#f9f9f9"></circle><circle r="5" cx="792.38" cy="843.29" fill="#f9f9f9"></circle><circle r="5" cx="1010.24" cy="411.68" fill="#f9f9f9"></circle><circle r="5" cx="1006.02" cy="511.14" fill="#f9f9f9"></circle><circle r="5" cx="938.03" cy="666.73" fill="#f9f9f9"></circle><circle r="5" cx="1152.27" cy="-59.04" fill="#f9f9f9"></circle><circle r="5" cx="1104.05" cy="215.73" fill="#f9f9f9"></circle><circle r="5" cx="1150.49" cy="393.87" fill="#f9f9f9"></circle><circle r="5" cx="1107.61" cy="544.21" fill="#f9f9f9"></circle><circle r="5" cx="1121.76" cy="701.19" fill="#f9f9f9"></circle><circle r="5" cx="1145.89" cy="817.63" fill="#f9f9f9"></circle><circle r="5" cx="1294.13" cy="-73.83" fill="#f9f9f9"></circle><circle r="5" cx="1307.64" cy="101.03" fill="#f9f9f9"></circle><circle r="5" cx="1293.45" cy="217.54" fill="#f9f9f9"></circle><circle r="5" cx="1241.87" cy="359.63" fill="#f9f9f9"></circle><circle r="5" cx="1248.91" cy="498.2" fill="#f9f9f9"></circle><circle r="5" cx="1277.12" cy="641.81" fill="#f9f9f9"></circle><circle r="5" cx="1439.71" cy="-50.15" fill="#f9f9f9"></circle><circle r="5" cx="1452.79" cy="67.97" fill="#f9f9f9"></circle><circle r="5" cx="1452.18" cy="188.89" fill="#f9f9f9"></circle><circle r="5" cx="1439.23" cy="381.43" fill="#f9f9f9"></circle><circle r="5" cx="1454.62" cy="549.67" fill="#f9f9f9"></circle><circle r="5" cx="1461.38" cy="682.5" fill="#f9f9f9"></circle><circle r="5" cx="1394.49" cy="824.03" fill="#f9f9f9"></circle><circle r="5" cx="1563.29" cy="100.79" fill="#f9f9f9"></circle><circle r="5" cx="1561.12" cy="224.22" fill="#f9f9f9"></circle><circle r="5" cx="1561" cy="339.96" fill="#f9f9f9"></circle><circle r="5" cx="1589.55" cy="558.98" fill="#f9f9f9"></circle><circle r="5" cx="1562.53" cy="696.1" fill="#f9f9f9"></circle></g><defs><mask id="SvgjsMask2533"><rect width="1440" height="720" fill="#ffffff"></rect></mask><linearGradient x1="87.5%" y1="125%" x2="12.5%" y2="-25%" gradientUnits="userSpaceOnUse" id="SvgjsLinearGradient2534"><stop stop-color="rgba(30, 44, 99, 1)" offset="0.24"></stop><stop stop-color="rgba(4, 6, 8, 1)" offset="0.97"></stop></linearGradient><radialGradient id="SvgjsRadialGradient2535"><stop stop-color="#ffffff" offset="0.1"></stop><stop stop-color="rgba(242, 242, 243, 1)" offset="0.2"></stop><stop stop-color="rgba(242, 242, 243, 0)" offset="1"></stop></radialGradient></defs></svg>