<svg xmlns="http://www.w3.org/2000/svg" xmlns:xlink="http://www.w3.org/1999/xlink" width="500" zoomAndPan="magnify" viewBox="0 0 375 374.999991" height="500" preserveAspectRatio="xMidYMid meet" version="1.0"><defs><clipPath id="5875ada069"><path d="M 4.433594 0 L 370.433594 0 L 370.433594 375 L 4.433594 375 Z M 4.433594 0 " clipRule="nonzero"/></clipPath></defs><path fill="#f6b4c8" d="M 187.421875 43.199219 C 107.699219 43.285156 43.101562 107.992188 43.183594 187.703125 C 43.339844 267.4375 108.144531 331.941406 187.929688 331.808594 C 267.65625 331.699219 332.21875 267.015625 332.125 187.28125 C 332.015625 107.5625 267.179688 43.066406 187.421875 43.199219 Z M 231.457031 101.132812 L 231.777344 300.792969 C 227.292969 302.546875 222.683594 304.042969 217.96875 305.257812 L 217.71875 122.605469 L 157.023438 144.875 L 157.328125 305.226562 C 152.609375 304.003906 148 302.507812 143.523438 300.746094 L 143.34375 166.269531 L 80.453125 188.566406 L 80.632812 245.460938 C 71.265625 228.300781 65.941406 208.605469 65.917969 187.679688 C 65.808594 120.496094 120.292969 65.902344 187.492188 65.816406 C 214.816406 65.769531 239.910156 74.863281 260.21875 89.984375 Z M 294.375 128.917969 C 303.957031 146.253906 309.402344 166.144531 309.425781 187.320312 C 309.472656 208.472656 304.074219 228.386719 294.601562 245.722656 Z M 294.375 128.917969 " fill-opacity="1" fill-rule="nonzero"/><g clip-path="url(#5875ada069)"><path fill="#004aad" d="M 4.289062 148.933594 C 22.363281 62.472656 98.445312 0.246094 187.328125 0.160156 L 187.601562 0.160156 C 231.878906 0.160156 274.847656 15.882812 308.582031 44.4375 C 340.460938 71.417969 362.484375 108.347656 371.015625 148.933594 C 358.09375 147.007812 347.042969 138.335938 341.996094 125.746094 C 329.785156 95.28125 308.996094 69.300781 281.859375 50.609375 C 254.082031 31.472656 221.492188 21.359375 187.609375 21.359375 L 187.40625 21.359375 C 153.625 21.414062 121.121094 31.542969 93.414062 50.664062 C 66.371094 69.339844 45.617188 95.273438 33.40625 125.675781 C 28.335938 138.304688 17.242188 147.007812 4.289062 148.933594 Z M 188.007812 374.855469 C 276.90625 374.722656 352.96875 312.496094 371.015625 226.082031 C 358.09375 228.007812 347.027344 236.6875 341.972656 249.285156 C 329.777344 279.695312 309.027344 305.621094 281.964844 324.289062 C 254.25 343.402344 221.742188 353.515625 187.945312 353.539062 L 187.648438 353.539062 C 153.796875 353.539062 121.230469 343.441406 93.46875 324.335938 C 66.339844 305.667969 45.546875 279.71875 33.328125 249.277344 C 28.273438 236.679688 17.21875 228 4.289062 226.074219 C 22.441406 312.613281 98.691406 374.847656 187.734375 374.847656 L 188.007812 374.847656 Z M 332.125 187.28125 C 332.210938 267.015625 267.648438 331.699219 187.929688 331.808594 C 108.144531 331.941406 43.339844 267.4375 43.183594 187.703125 C 43.101562 107.992188 107.699219 43.285156 187.421875 43.199219 C 267.179688 43.066406 332.015625 107.5625 332.125 187.28125 Z M 260.210938 89.984375 C 239.902344 74.863281 214.808594 65.769531 187.484375 65.816406 C 120.285156 65.902344 65.800781 120.496094 65.910156 187.679688 C 65.933594 208.613281 71.257812 228.300781 80.625 245.460938 L 80.445312 188.566406 L 143.339844 166.269531 L 143.515625 300.746094 C 148 302.5 152.601562 304.003906 157.320312 305.226562 L 157.015625 144.875 L 217.710938 122.605469 L 217.960938 305.257812 C 222.683594 304.042969 227.292969 302.546875 231.769531 300.792969 L 231.449219 101.132812 Z M 294.601562 245.730469 C 304.074219 228.394531 309.464844 208.472656 309.425781 187.328125 C 309.402344 166.152344 303.957031 146.261719 294.375 128.925781 Z M 294.601562 245.730469 " fill-opacity="1" fill-rule="nonzero"/></g></svg>