<svg xmlns="http://www.w3.org/2000/svg" xmlns:xlink="http://www.w3.org/1999/xlink" width="500" zoomAndPan="magnify" viewBox="0 0 375 374.999991" height="500" preserveAspectRatio="xMidYMid meet" version="1.0"><defs><clipPath id="a15d746711"><path d="M 63.066406 0 L 312.066406 0 L 312.066406 375 L 63.066406 375 Z M 63.066406 0 " clipRule="nonzero"/></clipPath></defs><path fill="#339deb" d="M 205.921875 110.164062 L 205.921875 237.277344 L 168.460938 237.277344 L 168.460938 110.164062 C 168.460938 99.835938 176.851562 91.453125 187.191406 91.453125 C 197.53125 91.453125 205.921875 99.835938 205.921875 110.164062 Z M 238.84375 137.609375 C 228.5 137.609375 220.109375 145.988281 220.109375 156.316406 L 220.109375 237.285156 L 257.574219 237.285156 L 257.574219 156.316406 C 257.574219 145.980469 249.183594 137.609375 238.84375 137.609375 Z M 135.191406 137.609375 C 124.851562 137.609375 116.460938 145.988281 116.460938 156.316406 L 116.460938 237.285156 L 153.925781 237.285156 L 153.925781 156.316406 C 153.925781 145.980469 145.542969 137.609375 135.191406 137.609375 Z M 135.191406 137.609375 " fill-opacity="1" fill-rule="nonzero"/><g clip-path="url(#a15d746711)"><path fill="#263b9d" d="M 187.644531 0.40625 C 118.679688 0.40625 62.769531 56.25 62.769531 125.136719 L 62.769531 249.863281 C 62.769531 318.746094 118.679688 374.59375 187.644531 374.59375 C 256.609375 374.59375 312.519531 318.746094 312.519531 249.863281 L 312.519531 125.136719 C 312.519531 56.25 256.609375 0.40625 187.644531 0.40625 Z M 275.058594 249.757812 L 100.234375 249.757812 L 100.234375 125.136719 C 100.234375 113.335938 102.539062 101.90625 107.082031 91.164062 C 111.480469 80.769531 117.789062 71.425781 125.832031 63.402344 C 133.871094 55.371094 143.226562 49.070312 153.625 44.675781 C 164.378906 40.132812 175.820312 37.832031 187.636719 37.832031 C 199.453125 37.832031 210.894531 40.140625 221.648438 44.675781 C 232.054688 49.070312 241.410156 55.371094 249.441406 63.402344 C 257.484375 71.433594 263.792969 80.777344 268.191406 91.164062 C 272.742188 101.90625 275.042969 113.335938 275.042969 125.136719 L 275.042969 249.757812 Z M 275.058594 249.757812 " fill-opacity="1" fill-rule="nonzero"/></g></svg>