<svg xmlns="http://www.w3.org/2000/svg" version="1.1" xmlns:xlink="http://www.w3.org/1999/xlink" xmlns:svgjs="http://svgjs.dev/svgjs" width="1980" height="1080" preserveAspectRatio="none" viewBox="0 0 1980 1080"><g mask="url(&quot;#SvgjsMask1021&quot;)" fill="none"><rect width="1980" height="1080" x="0" y="0" fill="rgba(48, 142, 240, 1)"></rect><path d="M250.71 0C316.12 70 243.6 137.67 252.3 270C253.25 284.41 259.99 293.48 270 293.48C282.01 293.48 283.53 282.13 296.34 270C418.53 154.23 401.36 74.11 540 37.67C658.19 6.61 685.04 68.53 810 135C903.42 184.69 976.76 199.89 976.76 270C976.76 344.01 899.7 354.94 810 423.24C722.4 489.94 622.17 494.18 622.17 540C622.17 580.61 713.78 581.53 810 596.1C942.69 616.19 953.12 629 1080 609.32C1133.92 600.95 1157.06 590.63 1171.61 540C1205.81 420.97 1136.7 393.49 1177.5 270C1225.9 123.49 1263.75 135 1350 0C1350 0 1350 0 1350 0C1485 0 1485 0 1620 0C1755 0 1755 0 1890 0C2025 0 2092.5 -67.5 2160 0C2227.5 67.5 2160 135 2160 270C2160 405 2160 405 2160 540C2160 675 2160 675 2160 810C2160 945 2160 945 2160 1080C2160 1080 2160 1080 2160 1080C2025 1080 2025 1080 1890 1080C1776.32 1080 1772.45 1092.2 1662.63 1080C1637.45 1077.2 1637.36 1050 1620 1050C1608.94 1050 1621.3 1078.28 1605.79 1080C1486.3 1093.28 1477.89 1080 1350 1080C1215 1080 1215 1080 1080 1080C945 1080 945 1080 810 1080C675 1080 675 1080 540 1080C405 1080 405 1080 270 1080C135 1080 67.5 1147.5 0 1080C-67.5 1012.5 0 945 0 810C0 675 0 675 0 540C0 405 0 405 0 270C0 135 -65 70 0 0C60.36 -65 189.97 -65 250.71 0" stroke="rgba(245, 245, 245, 0.58)" stroke-width="2"></path><path d="M1890 246.52C1882.98 246.52 1881.43 257.81 1881.43 270C1881.43 299.55 1882 330 1890 330C1898.56 330 1914.55 297.39 1914.55 270C1914.55 255.65 1899.54 246.52 1890 246.52" stroke="rgba(245, 245, 245, 0.58)" stroke-width="2"></path><path d="M270 786.52C257.18 794.09 251.38 797.72 251.38 810C251.38 824.46 253.51 835.7 270 840C397.82 873.37 420.86 896.72 540 885.35C578.05 881.72 584.38 850.78 584.38 810C584.38 727.84 597.27 643.75 540 639.47C440.08 632.01 401.49 708.83 270 786.52" stroke="rgba(245, 245, 245, 0.58)" stroke-width="2"></path><path d="M1890 645C1833.45 645 1805.14 731.37 1805.14 810C1805.14 868.87 1837.79 920 1890 920C1967.58 920 2064.71 873.54 2064.71 810C2064.71 736.04 1963.24 645 1890 645" stroke="rgba(245, 245, 245, 0.58)" stroke-width="2"></path><path d="M154.29 0C199.37 85.94 109.3 146.95 141.64 270C167.15 367.06 196.82 364.08 270 440.22C326.57 499.08 401.14 490.11 401.14 540C401.14 589.89 327.4 581.55 270 639.78C194.33 716.55 135 721 135 810C135 914.86 171.52 971.01 270 1027.5C374.02 1087.17 409.72 1021.22 540 1042.33C571.72 1047.47 594 1069.65 594 1080C594 1088.49 567 1080 540 1080C405 1080 405 1080 270 1080C135 1080 67.5 1147.5 0 1080C-67.5 1012.5 0 945 0 810C0 675 0 675 0 540C0 405 0 405 0 270C0 135 -49.09 85.91 0 0C28.05 -49.09 128.55 -49.06 154.29 0" stroke="rgba(245, 245, 245, 0.58)" stroke-width="2"></path><path d="M460.98 270C460.98 228.81 492.75 194.65 540 194.65C633.51 194.65 742.5 225.54 742.5 270C742.5 317.22 628.91 378 540 378C488.15 378 460.98 320.48 460.98 270" stroke="rgba(245, 245, 245, 0.58)" stroke-width="2"></path><path d="M1364.21 270C1476.35 131.59 1478.86 127.87 1600 0C1606.76 -7.13 1610 0 1620 0C1665 0 1691.11 -33.06 1710 0C1768.25 101.94 1747.77 133.91 1774.29 270C1800.38 403.91 1850.24 418.74 1815.23 540C1773.1 685.93 1718.85 673.51 1620 804.38C1616.88 808.51 1613.53 805.35 1611.29 810C1547.21 943.16 1576.71 987.69 1487.37 1080C1446.06 1122.69 1418.68 1080 1350 1080C1215 1080 1215 1080 1080 1080C1012.5 1080 1004.19 1103.68 945 1080C869.19 1049.68 870.59 1033 810 972C736.51 898 676.85 886.86 676.85 810C676.85 742.75 728.54 705.89 810 683.77C930.11 651.16 958.46 736.78 1080 700.54C1199.53 664.9 1220.96 643.33 1292.14 540C1355.96 447.35 1319.26 423.73 1350 308.57C1355.3 288.73 1351.35 285.87 1364.21 270" stroke="rgba(245, 245, 245, 0.58)" stroke-width="2"></path><path d="M2028.86 540C2028.86 443.53 2124.49 331.36 2160 331.36C2190.06 331.36 2160 435.68 2160 540C2160 603.75 2186.93 667.5 2160 667.5C2121.36 667.5 2028.86 611.6 2028.86 540" stroke="rgba(245, 245, 245, 0.58)" stroke-width="2"></path><path d="M57.86 0C70.63 111.27 54.09 137.83 30.98 270C25.16 303.31 8.19 330.97 0 330.97C-7.3 330.97 0 300.49 0 270C0 135 -23.82 111.18 0 0C5.11 -23.82 55.14 -23.73 57.86 0" stroke="rgba(245, 245, 245, 0.58)" stroke-width="2"></path><path d="M1541.84 270C1566.56 217.94 1586.08 182.65 1620 182.65C1648.73 182.65 1654.98 222.44 1667.14 270C1700.67 401.11 1726.47 413.98 1711.38 540C1702.9 610.85 1675.19 663.75 1620 663.75C1544.65 663.75 1466.87 623.51 1450.29 540C1427.79 426.64 1481.71 396.62 1541.84 270" stroke="rgba(245, 245, 245, 0.58)" stroke-width="2"></path><path d="M0 771.43C4.9 771.43 15.28 788.99 18.62 810C39.82 943.28 56.98 965.66 49.09 1080C47.67 1100.66 3.78 1100.77 0 1080C-20.77 965.77 0 945 0 810C0 790.71 -4.41 771.43 0 771.43" stroke="rgba(245, 245, 245, 0.58)" stroke-width="2"></path><path d="M769.32 810C769.32 789.45 783.36 772.99 810 771.43C938.7 763.87 946.27 800.78 1080 791.76C1216.27 782.57 1230.72 728.06 1350 735C1387.49 737.18 1391.25 768.19 1393.55 810C1400.73 940.69 1389.3 953.82 1368.95 1080C1367.53 1088.82 1359.47 1080 1350 1080C1242 1080 1235.85 1096.98 1134 1080C1100.85 1074.48 1109.03 1054.75 1080 1035C947.03 944.5 939.56 953.33 810 859.5C784.22 840.83 769.32 833.49 769.32 810" stroke="rgba(245, 245, 245, 0.58)" stroke-width="2"></path></g><defs><mask id="SvgjsMask1021"><rect width="1980" height="1080" fill="#ffffff"></rect></mask></defs></svg>