<svg xmlns="http://www.w3.org/2000/svg" version="1.1" xmlns:xlink="http://www.w3.org/1999/xlink" xmlns:svgjs="http://svgjs.dev/svgjs" width="800" height="1080" preserveAspectRatio="none" viewBox="0 0 800 1080"><g mask="url(&quot;#SvgjsMask1058&quot;)" fill="none"><rect width="800" height="1080" x="0" y="0" fill="rgba(202, 235, 255, 1)"></rect><path d="M0,427.607C94.744,443.157,201.503,491.132,281.98,438.77C362.496,386.382,355.84,267.501,386.158,176.352C412.91,95.923,470.48,17.485,449.414,-64.616C428.629,-145.622,336.308,-180.855,278.898,-241.667C224.599,-299.183,196.077,-387.225,121.09,-412.394C45.672,-437.708,-35.39,-401.586,-109.209,-371.932C-177.487,-344.504,-236.141,-301.877,-286.82,-248.531C-339.501,-193.078,-391.139,-133.344,-406.963,-58.512C-423.305,18.774,-406.996,99.044,-375.648,171.553C-343.864,245.069,-294.349,309.929,-228.169,355.039C-160.859,400.92,-80.384,414.413,0,427.607" fill="#aadfff"></path><path d="M800 1465.9850000000001C872.401 1466.865 937.597 1428.026 998.133 1388.301 1058.193 1348.888 1115.283 1302.932 1146.827 1238.391 1178.829 1172.911 1188.554 1097.702 1175.175 1026.058 1162.105 956.069 1118.958 897.823 1073.064 843.389 1026.628 788.3109999999999 978.739 726.634 908.658 709.9449999999999 839.501 693.476 765.866 719.332 704.772 755.684 651.293 787.505 636.652 856.601 591.0409999999999 898.936 537.0989999999999 949.004 444.147 957.066 414.999 1024.645 385.311 1093.478 407.47 1176.993 442.536 1243.248 476.689 1307.777 542.9739999999999 1344.91 604.939 1383.521 666.09 1421.624 727.954 1465.109 800 1465.9850000000001" fill="#eaf7ff"></path></g><defs><mask id="SvgjsMask1058"><rect width="800" height="1080" fill="#ffffff"></rect></mask></defs></svg>