<svg xmlns="http://www.w3.org/2000/svg" version="1.1" xmlns:xlink="http://www.w3.org/1999/xlink" xmlns:svgjs="http://svgjs.dev/svgjs" width="1980" height="1080" preserveAspectRatio="none" viewBox="0 0 1980 1080"><g mask="url(&quot;#SvgjsMask1032&quot;)" fill="none"><rect width="1980" height="1080" x="0" y="0" fill="rgba(112, 190, 239, 1)"></rect><path d="M0,416.17C80.402,418.544,153.143,383.645,228.537,355.611C324.67,319.865,439.75,310.675,502.304,229.395C568.04,143.981,584.324,24.788,564.708,-81.193C545.412,-185.444,468.253,-265.529,396.288,-343.385C326.366,-419.03,254.14,-500.174,154.233,-525.269C55.776,-550,-50.104,-524.567,-140.411,-478.197C-222.002,-436.303,-255.038,-341.412,-323.249,-280.097C-405.029,-206.585,-544.935,-187.677,-579.674,-83.345C-614.083,19.995,-561.497,141.126,-491.207,224.327C-426.269,301.192,-313.754,305.759,-220.025,342.365C-146.478,371.089,-78.923,413.84,0,416.17" fill="#1787cd"></path><path d="M1980 1787.595C2151.674 1806.0929999999998 2329.629 1942.31 2482.127 1861.326 2633.0190000000002 1781.1950000000002 2642.577 1569.316 2696.382 1407.161 2744.583 1261.894 2781.785 1118.084 2779.523 965.046 2776.992 793.851 2791.165 603.588 2682.547 471.23900000000003 2573.447 338.302 2385.937 301.04100000000005 2215.536 277.83799999999997 2061.763 256.899 1917.281 318.71900000000005 1764.548 346.23699999999997 1590.086 377.66999999999996 1391.921 339.491 1254.1570000000002 451.053 1110.9360000000001 567.034 1038.995 759.1220000000001 1027.5529999999999 943.059 1016.501 1120.735 1097.696 1288.993 1192.6660000000002 1439.563 1278.844 1576.193 1395.163 1694.817 1542.909 1760.126 1679.19 1820.368 1831.855 1771.633 1980 1787.595" fill="#dff0fb"></path></g><defs><mask id="SvgjsMask1032"><rect width="1980" height="1080" fill="#ffffff"></rect></mask></defs></svg>