<svg xmlns="http://www.w3.org/2000/svg" version="1.1" xmlns:xlink="http://www.w3.org/1999/xlink" xmlns:svgjs="http://svgjs.dev/svgjs" width="1920" height="1080" preserveAspectRatio="none" viewBox="0 0 1920 1080"><g mask="url(&quot;#SvgjsMask1000&quot;)" fill="none"><rect width="1920" height="1080" x="0" y="0" fill="rgba(41, 52, 106, 1)"></rect><path d="M48 1080L1128 0L1389 0L309 1080z" fill="url(&quot;#SvgjsLinearGradient1001&quot;)"></path><path d="M716.6 1080L1796.6 0L2641.1 0L1561.1 1080z" fill="url(&quot;#SvgjsLinearGradient1001&quot;)"></path><path d="M1905 1080L825 0L-13.5 0L1066.5 1080z" fill="url(&quot;#SvgjsLinearGradient1002&quot;)"></path><path d="M1266.4 1080L186.4000000000001 0L-590.5999999999999 0L489.4000000000001 1080z" fill="url(&quot;#SvgjsLinearGradient1002&quot;)"></path><path d="M969.722688264648 1080L1920 129.722688264648L1920 1080z" fill="url(&quot;#SvgjsLinearGradient1001&quot;)"></path><path d="M0 1080L950.277311735352 1080L 0 129.722688264648z" fill="url(&quot;#SvgjsLinearGradient1002&quot;)"></path></g><defs><mask id="SvgjsMask1000"><rect width="1920" height="1080" fill="#ffffff"></rect></mask><linearGradient x1="0%" y1="100%" x2="100%" y2="0%" id="SvgjsLinearGradient1001"><stop stop-color="rgba(15, 70, 185, 0.2)" offset="0"></stop><stop stop-opacity="0" stop-color="rgba(15, 70, 185, 0.2)" offset="0.66"></stop></linearGradient><linearGradient x1="100%" y1="100%" x2="0%" y2="0%" id="SvgjsLinearGradient1002"><stop stop-color="rgba(15, 70, 185, 0.2)" offset="0"></stop><stop stop-opacity="0" stop-color="rgba(15, 70, 185, 0.2)" offset="0.66"></stop></linearGradient></defs></svg>