<svg xmlns="http://www.w3.org/2000/svg" version="1.1" xmlns:xlink="http://www.w3.org/1999/xlink" xmlns:svgjs="http://svgjs.dev/svgjs" width="1980" height="1080" preserveAspectRatio="none" viewBox="0 0 1980 1080"><g mask="url(&quot;#SvgjsMask1041&quot;)" fill="none"><rect width="1980" height="1080" x="0" y="0" fill="rgba(254, 255, 255, 1)"></rect><path d="M1822.368783244796 5.26413125390905L1814.2014737533916 239.14527448973013 2048.0826169892125 247.31258398113468 2056.249926480617 13.43144074531359z" fill="rgba(47, 119, 197, 0.4)" className="triangle-float3"></path><path d="M911.5824593370783 163.173819449401L1114.8624022877389 405.90283552683263 1214.045919924458 147.52093833355016z" fill="rgba(47, 119, 197, 0.4)" className="triangle-float1"></path><path d="M1746.3089569532285 902.209917750886L1711.5106211358632 1149.812942815126 1959.1136462001032 1184.6112786324916 1993.9119820174685 937.0082535682515z" fill="rgba(47, 119, 197, 0.4)" className="triangle-float2"></path><path d="M1648.8096954012226 464.07172822825396L1879.3395991979473 650.7511634968228 2066.019034466516 420.221259700098 1835.4891306697914 233.54182443152925z" fill="rgba(47, 119, 197, 0.4)" className="triangle-float2"></path><path d="M413.2896677443571 435.2538756731459L233.12346715712258 386.97848772241275 184.8480792063894 567.1446883096472 365.0142797936239 615.4200762603804z" fill="rgba(47, 119, 197, 0.4)" className="triangle-float3"></path><path d="M663.0482906546949 161.94956683093838L529.1015128441128-52.410086753125796 314.7418592600486 81.53669105745632 448.68863707063076 295.8963446415205z" fill="rgba(47, 119, 197, 0.4)" className="triangle-float3"></path><path d="M639.0827618229985 358.43112688824124L516.4028180936498 599.2040732662416 879.8557082009988 481.1110706175899z" fill="rgba(47, 119, 197, 0.4)" className="triangle-float1"></path><path d="M1260.178,553.45C1303.537,554.835,1344.758,534.774,1368.413,498.41C1394.506,458.299,1405.016,407.515,1382.618,365.229C1358.936,320.519,1310.77,293.483,1260.178,294.068C1210.543,294.642,1164.383,323.43,1142.548,368.007C1122.813,408.297,1139.264,453.971,1163.295,491.856C1185.265,526.492,1219.183,552.14,1260.178,553.45" fill="rgba(47, 119, 197, 0.4)" className="triangle-float1"></path><path d="M544.0413162680975 579.8195581141485L250.89515240374936 461.38081990998154 132.45641419958235 754.5269837743297 425.6025780639305 872.9657219784967z" fill="rgba(47, 119, 197, 0.4)" className="triangle-float1"></path><path d="M1219.401,580.184C1260.674,580.569,1287.639,540.879,1306.319,504.073C1322.908,471.388,1328.37,433.302,1310.065,401.546C1291.74,369.754,1256.088,354.035,1219.401,353.28C1181.178,352.493,1140.818,364.378,1122.036,397.677C1103.496,430.547,1117.485,469.181,1135.248,502.477C1154.51,538.582,1178.481,579.802,1219.401,580.184" fill="rgba(47, 119, 197, 0.4)" className="triangle-float1"></path><path d="M481.6789738956441 664.1554751363806L684.0749634610333 888.9389940989406 706.4624928582042 461.75948557099133z" fill="rgba(47, 119, 197, 0.4)" className="triangle-float3"></path><path d="M614.304,468.707C644.722,470.528,672.817,450.951,686.893,423.925C700.029,398.705,693.316,369.232,678.874,344.736C664.703,320.699,642.206,301.065,614.304,300.8C586.003,300.531,560.461,318.292,547.573,343.489C535.7,366.702,543.091,393.041,555.353,416.051C568.634,440.973,586.114,467.02,614.304,468.707" fill="rgba(47, 119, 197, 0.4)" className="triangle-float1"></path><path d="M783.724,1144.281C832.888,1148.421,887.073,1135.568,911.929,1092.949C936.916,1050.106,921.852,996.294,893.944,955.294C869.555,919.464,827.035,906.257,783.724,904.6C736.391,902.789,681.119,904.997,657.855,946.259C634.801,987.149,662.973,1034.492,688.154,1074.107C710.877,1109.856,741.513,1140.727,783.724,1144.281" fill="rgba(47, 119, 197, 0.4)" className="triangle-float3"></path><path d="M1049.2452685445323 348.4119402682469L814.8746201069133 494.8629754640307 961.3256553026971 729.2336239016497 1195.6963037403161 582.7825887058659z" fill="rgba(47, 119, 197, 0.4)" className="triangle-float2"></path><path d="M1797.7692672226108 890.2202040251746L1940.397161788723 678.7656545203063 1728.9426122838545 536.137759954194 1586.3147177177425 747.5923094590623z" fill="rgba(47, 119, 197, 0.4)" className="triangle-float3"></path><path d="M1834.6765975415485 329.5053708788377L1674.749588480867 575.2583065320165 1930.4354676850005 593.137604923735z" fill="rgba(47, 119, 197, 0.4)" className="triangle-float2"></path></g><defs><mask id="SvgjsMask1041"><rect width="1980" height="1080" fill="#ffffff"></rect></mask><style>
                @keyframes float1 {
                    0%{transform: translate(0, 0)}
                    50%{transform: translate(-10px, 0)}
                    100%{transform: translate(0, 0)}
                }

                .triangle-float1 {
                    animation: float1 5s infinite;
                }

                @keyframes float2 {
                    0%{transform: translate(0, 0)}
                    50%{transform: translate(-5px, -5px)}
                    100%{transform: translate(0, 0)}
                }

                .triangle-float2 {
                    animation: float2 4s infinite;
                }

                @keyframes float3 {
                    0%{transform: translate(0, 0)}
                    50%{transform: translate(0, -10px)}
                    100%{transform: translate(0, 0)}
                }

                .triangle-float3 {
                    animation: float3 6s infinite;
                }
            </style></defs></svg>