<?xml version="1.0" encoding="iso-8859-1"?>
<!-- Generator: Adobe Illustrator 19.0.0, SVG Export Plug-In . SVG Version: 6.00 Build 0)  -->
<svg version="1.1" id="Layer_1" xmlns="http://www.w3.org/2000/svg" xmlns:xlink="http://www.w3.org/1999/xlink" x="0px" y="0px"
	 viewBox="0 0 512 512" style="enable-background:new 0 0 512 512;" xml:space="preserve">
<g>
	<g>
		<g>
			<path d="M460.8,43.116h-67.368V29.642C393.432,13.298,380.134,0,363.789,0h-53.895c-16.344,0-29.642,13.298-29.642,29.642v13.474
				H51.2c-28.231,0-51.2,22.969-51.2,51.2v269.474c0,28.231,22.969,51.2,51.2,51.2h46.932c3.527,12.428,14.977,21.558,28.521,21.558
				H204.8v59.284h-99.705c-4.465,0-8.084,3.619-8.084,8.084c0,4.466,3.62,8.084,8.084,8.084h301.811
				c4.466,0,8.084-3.618,8.084-8.084c0-4.466-3.618-8.084-8.084-8.084H307.2v-59.284h78.147c13.544,0,24.995-9.13,28.522-21.558
				h46.93c28.231,0,51.2-22.969,51.2-51.2V94.316C512,66.085,489.031,43.116,460.8,43.116z M296.421,29.642
				c0-7.43,6.044-13.474,13.474-13.474h53.895c7.43,0,13.474,6.044,13.474,13.474v293.726h-59.284V126.653
				c0-13.544-9.13-24.995-21.558-28.522V29.642z M288.337,113.179c7.43,0,13.474,6.044,13.474,13.474v196.716h-59.284v-99.705
				c0-13.544-9.13-24.995-21.558-28.522v-68.488c0-7.43,6.044-13.474,13.474-13.474H288.337z M226.358,223.663v99.705h-80.842
				v-99.705c0-7.43,6.044-13.474,13.474-13.474h53.895C220.314,210.189,226.358,216.233,226.358,223.663z M291.032,495.832h-70.063
				v-59.284h70.063V495.832z M385.347,420.379h-86.232H126.653c-7.43,0-13.474-6.044-13.474-13.474s6.044-13.474,13.474-13.474
				h258.695c7.43,0,13.474,6.044,13.474,13.474S392.777,420.379,385.347,420.379z M495.832,363.789
				c0,19.317-15.715,35.032-35.032,35.032h-46.93c-3.528-12.428-14.979-21.558-28.522-21.558H126.653
				c-13.543,0-24.994,9.13-28.521,21.558H51.2c-19.316,0-35.032-15.715-35.032-35.032V94.316c0-19.317,15.716-35.032,35.032-35.032
				h229.053v37.726h-45.811c-16.345,0-29.642,13.298-29.642,29.642v67.368h-45.81c-16.345,0-29.642,13.298-29.642,29.642v99.705
				h-51.2c-4.465,0-8.084,3.619-8.084,8.084s3.62,8.084,8.084,8.084h324.138c4.466,0,8.084-3.619,8.084-8.084
				s-3.619-8.084-8.084-8.084h-8.854V59.284H460.8c19.317,0,35.032,15.715,35.032,35.032V363.789z"/>
			<path d="M433.853,323.368h-1.588c-4.466,0-8.084,3.619-8.084,8.084s3.619,8.084,8.084,8.084h1.588
				c4.466,0,8.084-3.619,8.084-8.084S438.318,323.368,433.853,323.368z"/>
		</g>
	</g>
</g>
<g>
</g>
<g>
</g>
<g>
</g>
<g>
</g>
<g>
</g>
<g>
</g>
<g>
</g>
<g>
</g>
<g>
</g>
<g>
</g>
<g>
</g>
<g>
</g>
<g>
</g>
<g>
</g>
<g>
</g>
</svg>
